<?xml version="1.0" standalone="no"?>
<!DOCTYPE svg PUBLIC "-//W3C//DTD SVG 20010904//EN"
 "http://www.w3.org/TR/2001/REC-SVG-20010904/DTD/svg10.dtd">
<svg version="1.0" xmlns="http://www.w3.org/2000/svg"
 width="96.000000pt" height="96.000000pt" viewBox="0 0 96.000000 96.000000"
 preserveAspectRatio="xMidYMid meet">
<metadata>
Created by potrace 1.14, written by Peter Selinger 2001-2017
</metadata>
<g transform="translate(0.000000,96.000000) scale(0.100000,-0.100000)"
fill="#000000" stroke="none">
<path d="M645 871 c-3 -6 -20 -11 -38 -11 -27 0 -44 -13 -117 -90 -47 -50 -91
-90 -98 -90 -23 0 -146 -40 -162 -53 -21 -17 -153 -166 -173 -197 -23 -33 -21
-72 4 -104 15 -19 18 -30 11 -39 -6 -7 -12 -25 -15 -42 -3 -16 -8 -46 -11 -65
-11 -61 2 -68 81 -42 56 19 77 33 115 75 27 29 48 47 48 40 0 -6 53 -38 118
-69 103 -51 125 -58 187 -60 46 -2 94 4 140 17 38 10 93 19 121 19 54 0 70 13
57 46 -8 21 -117 17 -203 -9 -97 -29 -157 -20 -283 45 -74 39 -103 59 -105 74
-6 39 18 46 108 33 61 -9 91 -9 119 0 48 14 75 43 66 70 -8 27 -37 27 -61 0
-16 -18 -27 -20 -72 -16 -30 3 -55 7 -57 9 -2 2 35 47 81 101 l86 97 61 -45
c147 -106 246 -149 260 -111 9 22 -2 46 -21 46 -22 0 -128 60 -199 112 l-60
44 34 44 c24 31 34 53 32 75 -1 16 2 38 6 49 5 10 4 26 -2 35 -12 19 -48 26
-58 12z m-11 -87 c3 -9 3 -21 -1 -27 -6 -12 -165 -198 -193 -227 -8 -8 -32
-36 -53 -62 -21 -25 -51 -51 -67 -58 -31 -13 -60 -49 -60 -74 0 -8 -18 -34
-40 -58 -22 -24 -40 -46 -40 -50 0 -7 -61 -30 -66 -25 -11 10 18 63 61 113 65
75 199 229 239 274 17 19 60 69 95 110 91 106 111 119 125 84z m-315 -211
c-75 -84 -118 -133 -154 -175 -30 -36 -42 -44 -52 -36 -20 16 -17 22 36 86 80
96 115 131 141 141 46 18 55 13 29 -16z"/>
</g>
</svg>
